Coordinates
version=1
nRows=4
nColumns=63
inDegrees=yes

Units are S.I. units (second, meters, Newtons, ...)
If the header above contains a line with 'inDegrees', this indicates whether rotational values are in degrees (yes) or radians (no).

endheader
time	pelvis_tilt	pelvis_list	pelvis_rotation	pelvis_tx	pelvis_ty	pelvis_tz	hip_flexion_r	hip_adduction_r	hip_rotation_r	knee_angle_r	knee_angle_r_beta	ankle_angle_r	subtalar_angle_r	mtp_angle_r	hip_flexion_l	hip_adduction_l	hip_rotation_l	knee_angle_l	knee_angle_l_beta	ankle_angle_l	subtalar_angle_l	mtp_angle_l	L5_S1_Flex_Ext	L5_S1_Lat_Bending	L5_S1_axial_rotation	L4_L5_Flex_Ext	L4_L5_Lat_Bending	L4_L5_axial_rotation	L3_L4_Flex_Ext	L3_L4_Lat_Bending	L3_L4_axial_rotation	L2_L3_Flex_Ext	L2_L3_Lat_Bending	L2_L3_axial_rotation	L1_L2_Flex_Ext	L1_L2_Lat_Bending	L1_L2_axial_rotation	L1_T12_Flex_Ext	L1_T12_Lat_Bending	L1_T12_axial_rotation	Abs_r3	Abs_r2	Abs_r1	Abs_t1	Abs_t2	neck_flexion	neck_bending	neck_rotation	arm_flex_r	arm_add_r	arm_rot_r	elbow_flex_r	pro_sup_r	wrist_flex_r	wrist_dev_r	arm_flex_l	arm_add_l	arm_rot_l	elbow_flex_l	pro_sup_l	wrist_flex_l	wrist_dev_l
      0.00000000	     -1.15757756	    -12.25105088	    109.30692114	      0.19060844	      0.34707648	      0.61884648	     -3.46175399	     -0.71110850	    -21.10532262	      5.58598870	      0.09749389	     20.33267848	      3.26334778	      0.00000000	     -3.13050201	      2.41050658	     -0.64710166	      0.64971856	      0.01133973	     24.84785532	      6.38230376	      0.00000000	      0.14050089	     -0.18236762	      0.09900405	      0.26092421	     -0.24254893	      0.10519181	      0.23082892	     -0.44340863	      0.10519181	      0.16057847	     -0.44340863	      0.08662855	      0.13046913	     -0.37188405	      0.08044079	      0.08028221	     -0.28248744	      0.07425304	      1.00358383	     -2.06297898	      0.55063085	      0.00000000	      0.00000000	     27.87334952	     -1.21124093	     -0.27782350	     19.69908882	     -4.19857248	    103.18646829	     31.34681479	     87.61568963	    -14.84811181	     -1.64308172	     17.50556569	      0.73139880	     73.17270147	     33.29183003	     40.17624861	     -0.10153727	      9.38500515
      0.01960784	     -1.57461864	    -12.64214681	    109.00218930	      0.19142081	      0.34600390	      0.61890788	     -3.47460546	     -1.20334663	    -21.90053724	      5.38691061	      0.09401933	     20.12782865	      3.45132331	      0.00000000	     -3.04148172	      2.89531209	      0.11468453	      0.54459722	      0.00950501	     24.79845595	      6.06409018	      0.00000000	      0.16834081	     -0.25560539	      0.09202984	      0.31262572	     -0.33995517	      0.09778171	      0.27656712	     -0.62147895	      0.09778171	      0.19239672	     -0.62147895	      0.08052611	      0.15632128	     -0.52123052	      0.07477425	      0.09618994	     -0.39593275	      0.06902238	      1.20244160	     -2.89145933	      0.51184238	      0.00000000	      0.00000000	     27.94496634	     -0.74453352	     -0.47800067	     19.66242112	     -3.35063794	    104.46041488	     30.07921119	     87.51941461	    -13.84599491	      0.49440244	     17.30834503	      0.74640177	     73.28387475	     32.85316964	     40.51727766	     -1.75310250	      7.95551538
      0.03921569	     -1.77033617	    -12.81190334	    108.79248403	      0.19187337	      0.34516999	      0.61923769	     -3.51346198	     -1.41283577	    -22.41165778	      5.25446924	      0.09170779	     20.01891457	      3.35147546	      0.00000000	     -3.04748347	      3.11009411	      0.50359046	      0.49021066	      0.00855579	     25.02079514	      6.03907612	      0.00000000	      0.17288208	     -0.28486878	      0.12422366	      0.32105931	     -0.37887548	      0.13198764	      0.28402797	     -0.69262996	      0.13198764	      0.19758693	     -0.69262996	      0.10869570	      0.16053830	     -0.58090442	      0.10093172	      0.09878482	     -0.44126174	      0.09316774	      1.23487940	     -3.22249263	      0.69089472	      0.00000000	      0.00000000	     27.99807752	     -0.71355355	     -0.41763579	     19.57228024	     -3.20251277	    104.59914657	     29.60278632	     87.31083788	    -13.57517463	      1.06747979	     17.30463805	      0.90860822	     73.14730775	     32.45347027	     40.47026380	     -2.29528090	      7.70104748
      0.05882353	     -2.16887189	    -12.94240398	    109.12415988	      0.19149874	      0.34476648	      0.61916406	     -3.88401626	     -1.74251198	    -23.54167355	      4.79532204	      0.08369416	     20.15646500	      4.27501861	      0.00000000	     -3.15540289	      3.50680090	      1.65550811	      0.44530665	      0.00777207	     24.44005281	      5.00892914	      0.00000000	      0.17279021	     -0.33956546	      0.03084499	      0.32088870	     -0.45162206	      0.03277280	      0.28387704	     -0.82561945	      0.03277280	      0.19748193	     -0.82561945	      0.02698937	      0.16045299	     -0.69244188	      0.02506156	      0.09873233	     -0.52598689	      0.02313374	      1.23422319	     -3.84123236	      0.17155059	      0.00000000	      0.00000000	     27.99542790	     -0.40238742	     -0.59338066	     19.31218260	     -2.86833880	    103.51755675	     29.39981317	     85.69552544	    -11.78087770	      3.23826759	     17.15058694	      0.53187786	     73.13732637	     32.94694549	     39.98881202	     -4.16426027	      7.11879400
